<svg viewBox="0 0 1200 630" xmlns="http://www.w3.org/2000/svg" width="1200" height="630">
  <defs>
    <radialGradient id="bgGrad" cx="60%" cy="40%" r="70%">
      <stop offset="0%" stop-color="#0D1A0D"/>
      <stop offset="100%" stop-color="#0F1117"/>
    </radialGradient>
    <radialGradient id="glowYellow" cx="50%" cy="50%" r="50%">
      <stop offset="0%" stop-color="#FFD43B" stop-opacity="0.2"/>
      <stop offset="100%" stop-color="#FFD43B" stop-opacity="0"/>
    </radialGradient>
    <radialGradient id="glowBlue2" cx="50%" cy="50%" r="50%">
      <stop offset="0%" stop-color="#306998" stop-opacity="0.25"/>
      <stop offset="100%" stop-color="#306998" stop-opacity="0"/>
    </radialGradient>
    <filter id="glow">
      <feGaussianBlur stdDeviation="4" result="coloredBlur"/>
      <feMerge>
        <feMergeNode in="coloredBlur"/>
        <feMergeNode in="SourceGraphic"/>
      </feMerge>
    </filter>
    <filter id="softGlow">
      <feGaussianBlur stdDeviation="10" result="coloredBlur"/>
      <feMerge>
        <feMergeNode in="coloredBlur"/>
        <feMergeNode in="SourceGraphic"/>
      </feMerge>
    </filter>
  </defs>

  <!-- Background -->
  <rect width="1200" height="630" fill="url(#bgGrad)"/>

  <!-- Glow orbs -->
  <ellipse cx="900" cy="300" rx="320" ry="260" fill="url(#glowYellow)" opacity="0.7"/>
  <ellipse cx="820" cy="400" rx="220" ry="180" fill="url(#glowBlue2)" opacity="0.6"/>

  <!-- Grid lines -->
  <g stroke="#FFD43B" stroke-opacity="0.05" stroke-width="1">
    <line x1="0" y1="105" x2="1200" y2="105"/>
    <line x1="0" y1="210" x2="1200" y2="210"/>
    <line x1="0" y1="315" x2="1200" y2="315"/>
    <line x1="0" y1="420" x2="1200" y2="420"/>
    <line x1="0" y1="525" x2="1200" y2="525"/>
    <line x1="200" y1="0" x2="200" y2="630"/>
    <line x1="400" y1="0" x2="400" y2="630"/>
    <line x1="600" y1="0" x2="600" y2="630"/>
    <line x1="800" y1="0" x2="800" y2="630"/>
    <line x1="1000" y1="0" x2="1000" y2="630"/>
  </g>

  <!-- Python logo - simplified geometric version -->
  <!-- Blue snake body top -->
  <path d="M 800 120
             C 800 100, 820 88, 840 88
             L 940 88
             C 960 88, 970 98, 970 118
             L 970 220
             C 970 240, 958 252, 938 252
             L 840 252
             C 820 252, 800 264, 800 284
             L 800 316"
        fill="none" stroke="#306998" stroke-width="72" stroke-linecap="round" opacity="0.9"/>

  <!-- Yellow snake body bottom -->
  <path d="M 1000 320
             C 1000 300, 980 288, 960 288
             L 860 288
             C 840 288, 830 298, 830 318
             L 830 420
             C 830 440, 842 452, 862 452
             L 960 452
             C 980 452, 1000 464, 1000 484
             L 1000 516"
        fill="none" stroke="#FFD43B" stroke-width="72" stroke-linecap="round" opacity="0.9"/>

  <!-- Eye dots -->
  <circle cx="924" cy="148" r="10" fill="white"/>
  <circle cx="876" cy="392" r="10" fill="#0F1117"/>

  <!-- Accent line -->
  <rect x="80" y="155" width="5" height="150" rx="3" fill="#FFD43B" filter="url(#glow)"/>

  <!-- Main title line 1 -->
  <text x="108" y="230" font-family="'SF Pro Display', 'Helvetica Neue', Arial, sans-serif" font-size="72" font-weight="800" fill="#FFD43B" letter-spacing="-2" filter="url(#softGlow)">Python</text>
  <!-- Main title line 2 -->
  <text x="108" y="318" font-family="'SF Pro Display', 'Helvetica Neue', Arial, sans-serif" font-size="72" font-weight="800" fill="#FFFFFF" letter-spacing="-2">Virtual</text>
  <text x="108" y="400" font-family="'SF Pro Display', 'Helvetica Neue', Arial, sans-serif" font-size="72" font-weight="800" fill="#306998" letter-spacing="-2" filter="url(#softGlow)">Environments</text>

  <!-- Subtitle -->
  <text x="108" y="448" font-family="'SF Pro Display', 'Helvetica Neue', Arial, sans-serif" font-size="22" fill="#7A8A9A" letter-spacing="1">Setup guide for Mac</text>

  <!-- Command snippets -->
  <rect x="108" y="470" width="390" height="36" rx="8" fill="#1A1F0A" stroke="#FFD43B" stroke-opacity="0.3" stroke-width="1"/>
  <text x="126" y="493" font-family="'Courier New', monospace" font-size="15" fill="#FFD43B" opacity="0.9">$ python3 -m venv venv</text>

  <!-- Bottom separator line -->
  <line x1="80" y1="575" x2="1120" y2="575" stroke="#FFD43B" stroke-opacity="0.12" stroke-width="1"/>

  <!-- Site name -->
  <text x="1120" y="606" font-family="'SF Pro Display', 'Helvetica Neue', Arial, sans-serif" font-size="18" fill="#FFD43B" fill-opacity="0.4" text-anchor="end" letter-spacing="3">HOMELAB</text>
</svg>
